<?xml version="1.0" encoding="UTF-8" standalone="no"?>
<svg
   width="1200pt"
   height="1200pt"
   version="1.1"
   viewBox="0 0 1200 1200"
   id="svg35"
   sodipodi:docname="Luigi.svg"
   inkscape:version="1.1.2 (b8e25be833, 2022-02-05)"
   inkscape:export-filename="C:\Users\Niels\Desktop\Luigi.png"
   inkscape:export-xdpi="30.719999"
   inkscape:export-ydpi="30.719999"
   xmlns:inkscape="http://www.inkscape.org/namespaces/inkscape"
   xmlns:sodipodi="http://sodipodi.sourceforge.net/DTD/sodipodi-0.dtd"
   xmlns="http://www.w3.org/2000/svg"
   xmlns:svg="http://www.w3.org/2000/svg">
  <defs
     id="defs39" />
  <sodipodi:namedview
     id="namedview37"
     pagecolor="#505050"
     bordercolor="#eeeeee"
     borderopacity="1"
     inkscape:pageshadow="0"
     inkscape:pageopacity="0"
     inkscape:pagecheckerboard="0"
     inkscape:document-units="pt"
     showgrid="false"
     inkscape:zoom="0.17854446"
     inkscape:cx="-845.72771"
     inkscape:cy="-366.8554"
     inkscape:window-width="1526"
     inkscape:window-height="950"
     inkscape:window-x="221"
     inkscape:window-y="62"
     inkscape:window-maximized="0"
     inkscape:current-layer="svg35" />
  <path
     d="m 150,807.19 c 0,54.844 21.355,106.41 60.133,145.18 38.773,38.777 90.336,60.133 145.18,60.133 h 489.38 c 54.844,0 106.39,-21.355 145.18,-60.133 38.777,-38.773 60.133,-90.336 60.133,-145.18 V 686.95 c -57.113,39.355 -128.55,63.055 -206.25,63.055 h -487.5 c -77.75247,0.25542 -151.26472,-20.66884 -206.25,-63.07375 z"
     id="path25"
     style="fill:#873712;fill-opacity:1"
     sodipodi:nodetypes="ccsscscsccc" />
  <path
     d="m 1162.5,450 c 0,-144.75 -139.22,-262.5 -310.35,-262.5 -92.062,0 -178.86,34.406 -238.12,94.406 -7.3125,7.4062 -20.738,7.4062 -28.051,0 -59.27,-60 -146.06,-94.406 -238.12,-94.406 -171.13,0 -310.35,117.75 -310.35,262.5 0,144.75 139.22,262.5 310.35,262.5 504.328,0 0,0 504.328,0 171.09,0 310.31,-117.75 310.31,-262.5 z"
     id="path29"
     style="fill:#ff6600"
     sodipodi:nodetypes="csccsscccc" />
</svg>
